<mxGraphModel dx="1271" dy="1623" grid="1" gridSize="10" guides="1" tooltips="1" connect="1" arrows="1" fold="1" page="1" pageScale="1" pageWidth="850" pageHeight="1100" math="0" shadow="0">
  <root>
    <mxCell id="0" />
    <mxCell id="1" parent="0" />
    
    <!-- Main Flow: main() -->
    <mxCell id="2" value="โปรแกรมหลัก : main()" style="text;html=1;strokeColor=none;fillColor=none;align=center;verticalAlign=middle;whiteSpace=wrap;rounded=0;fontStyle=1;fontSize=14;" vertex="1" parent="1">
      <mxGeometry x="10" y="10" width="200" height="20" as="geometry" />
    </mxCell>
    <mxCell id="3" value="เริ่มต้น (Start)" style="ellipse;whiteSpace=wrap;html=1;fillColor=#6a329f;fontColor=#ffffff;strokeColor=#371960;" vertex="1" parent="1">
      <mxGeometry x="50" y="40" width="120" height="40" as="geometry" />
    </mxCell>
    <mxCell id="4" value="Process: ประกาศตัวแปร num1, num2 (ชนิดจำนวนเต็ม)" style="shape=rectangle;whiteSpace=wrap;html=1;fillColor=#dae8fc;strokeColor=#6c8ebf;" vertex="1" parent="1">
      <mxGeometry x="30" y="100" width="160" height="40" as="geometry" />
    </mxCell>
    <mxCell id="5" value="Output: แสดงข้อความ &quot;Enter num1 :&quot;" style="shape=parallelogram;perimeter=parallelogramPerimeter;whiteSpace=wrap;html=1;fillColor=#fff2cc;strokeColor=#d6b656;" vertex="1" parent="1">
      <mxGeometry x="30" y="170" width="160" height="40" as="geometry" />
    </mxCell>
    <mxCell id="6" value="Input: รับค่า num1" style="shape=parallelogram;perimeter=parallelogramPerimeter;whiteSpace=wrap;html=1;fillColor=#fff2cc;strokeColor=#d6b656;" vertex="1" parent="1">
      <mxGeometry x="30" y="240" width="160" height="40" as="geometry" />
    </mxCell>
    <mxCell id="7" value="Output: แสดงข้อความ &quot;Enter num2 :&quot;" style="shape=parallelogram;perimeter=parallelogramPerimeter;whiteSpace=wrap;html=1;fillColor=#fff2cc;strokeColor=#d6b656;" vertex="1" parent="1">
      <mxGeometry x="30" y="310" width="160" height="40" as="geometry" />
    </mxCell>
    <mxCell id="8" value="Input: รับค่า num2" style="shape=parallelogram;perimeter=parallelogramPerimeter;whiteSpace=wrap;html=1;fillColor=#fff2cc;strokeColor=#d6b656;" vertex="1" parent="1">
      <mxGeometry x="30" y="380" width="160" height="40" as="geometry" />
    </mxCell>
    <mxCell id="9" value="Process: กำหนด ptr1 ชี้ไปที่ num1 และ ptr2 ชี้ไปที่ num2" style="shape=rectangle;whiteSpace=wrap;html=1;fillColor=#dae8fc;strokeColor=#6c8ebf;" vertex="1" parent="1">
      <mxGeometry x="30" y="450" width="160" height="40" as="geometry" />
    </mxCell>
    <mxCell id="10" value="Output: แสดงค่า num1, num2 ก่อนการสลับ" style="shape=parallelogram;perimeter=parallelogramPerimeter;whiteSpace=wrap;html=1;fillColor=#fff2cc;strokeColor=#d6b656;" vertex="1" parent="1">
      <mxGeometry x="30" y="520" width="160" height="40" as="geometry" />
    </mxCell>
    <mxCell id="11" value="Function: เรียกใช้ swapNumbers(ptr1, ptr2)" style="shape=process;whiteSpace=wrap;html=1;fillColor=#d5e8d4;strokeColor=#82b366;" vertex="1" parent="1">
      <mxGeometry x="30" y="590" width="160" height="40" as="geometry" />
    </mxCell>
    <mxCell id="12" value="Output: แสดงค่า num1, num2 หลังการสลับ" style="shape=parallelogram;perimeter=parallelogramPerimeter;whiteSpace=wrap;html=1;fillColor=#fff2cc;strokeColor=#d6b656;" vertex="1" parent="1">
      <mxGeometry x="30" y="660" width="160" height="40" as="geometry" />
    </mxCell>
    <mxCell id="13" value="Process: คืนค่า 0" style="shape=rectangle;whiteSpace=wrap;html=1;fillColor=#dae8fc;strokeColor=#6c8ebf;" vertex="1" parent="1">
      <mxGeometry x="50" y="730" width="120" height="40" as="geometry" />
    </mxCell>
    <mxCell id="14" value="สิ้นสุด (Stop)" style="ellipse;whiteSpace=wrap;html=1;fillColor=#6a329f;fontColor=#ffffff;strokeColor=#371960;" vertex="1" parent="1">
      <mxGeometry x="50" y="800" width="120" height="40" as="geometry" />
    </mxCell>
    
    <!-- Main Connectors -->
    <mxCell id="15" value="" style="endArrow=classic;html=1;exitX=0.5;exitY=1;entryX=0.5;entryY=0;" edge="1" parent="1" source="3" target="4">
      <mxGeometry width="50" height="50" relative="1" as="geometry" />
    </mxCell>
    <mxCell id="16" value="" style="endArrow=classic;html=1;exitX=0.5;exitY=1;entryX=0.5;entryY=0;" edge="1" parent="1" source="4" target="5">
      <mxGeometry width="50" height="50" relative="1" as="geometry" />
    </mxCell>
    <mxCell id="17" value="" style="endArrow=classic;html=1;exitX=0.5;exitY=1;entryX=0.5;entryY=0;" edge="1" parent="1" source="5" target="6">
      <mxGeometry width="50" height="50" relative="1" as="geometry" />
    </mxCell>
    <mxCell id="18" value="" style="endArrow=classic;html=1;exitX=0.5;exitY=1;entryX=0.5;entryY=0;" edge="1" parent="1" source="6" target="7">
      <mxGeometry width="50" height="50" relative="1" as="geometry" />
    </mxCell>
    <mxCell id="19" value="" style="endArrow=classic;html=1;exitX=0.5;exitY=1;entryX=0.5;entryY=0;" edge="1" parent="1" source="7" target="8">
      <mxGeometry width="50" height="50" relative="1" as="geometry" />
    </mxCell>
    <mxCell id="20" value="" style="endArrow=classic;html=1;exitX=0.5;exitY=1;entryX=0.5;entryY=0;" edge="1" parent="1" source="8" target="9">
      <mxGeometry width="50" height="50" relative="1" as="geometry" />
    </mxCell>
    <mxCell id="21" value="" style="endArrow=classic;html=1;exitX=0.5;exitY=1;entryX=0.5;entryY=0;" edge="1" parent="1" source="9" target="10">
      <mxGeometry width="50" height="50" relative="1" as="geometry" />
    </mxCell>
    <mxCell id="22" value="" style="endArrow=classic;html=1;exitX=0.5;exitY=1;entryX=0.5;entryY=0;" edge="1" parent="1" source="10" target="11">
      <mxGeometry width="50" height="50" relative="1" as="geometry" />
    </mxCell>
    <mxCell id="23" value="" style="endArrow=classic;html=1;exitX=0.5;exitY=1;entryX=0.5;entryY=0;" edge="1" parent="1" source="11" target="12">
      <mxGeometry width="50" height="50" relative="1" as="geometry" />
    </mxCell>
    <mxCell id="24" value="" style="endArrow=classic;html=1;exitX=0.5;exitY=1;entryX=0.5;entryY=0;" edge="1" parent="1" source="12" target="13">
      <mxGeometry width="50" height="50" relative="1" as="geometry" />
    </mxCell>
    <mxCell id="25" value="" style="endArrow=classic;html=1;exitX=0.5;exitY=1;entryX=0.5;entryY=0;" edge="1" parent="1" source="13" target="14">
      <mxGeometry width="50" height="50" relative="1" as="geometry" />
    </mxCell>

    <!-- Sub Function: swapNumbers(int *a, int *b) -->
    <mxCell id="26" value="ฟังก์ชันย่อย: swapNumbers(a, b)" style="text;html=1;strokeColor=none;fillColor=none;align=center;verticalAlign=middle;whiteSpace=wrap;rounded=0;fontStyle=1;fontSize=14;" vertex="1" parent="1">
      <mxGeometry x="300" y="10" width="250" height="20" as="geometry" />
    </mxCell>
    <mxCell id="27" value="เริ่มต้น (Function)" style="ellipse;whiteSpace=wrap;html=1;fillColor=#6a329f;fontColor=#ffffff;strokeColor=#371960;" vertex="1" parent="1">
      <mxGeometry x="370" y="40" width="120" height="40" as="geometry" />
    </mxCell>
    <mxCell id="28" value="Process: *b = *a + *b (หาผลรวม)" style="shape=rectangle;whiteSpace=wrap;html=1;fillColor=#dae8fc;strokeColor=#6c8ebf;" vertex="1" parent="1">
      <mxGeometry x="350" y="100" width="160" height="40" as="geometry" />
    </mxCell>
    <mxCell id="29" value="Process: *a = *b - *a (ย้ายค่าเดิมของ b ไป a)" style="shape=rectangle;whiteSpace=wrap;html=1;fillColor=#dae8fc;strokeColor=#6c8ebf;" vertex="1" parent="1">
      <mxGeometry x="340" y="170" width="180" height="40" as="geometry" />
    </mxCell>
    <mxCell id="30" value="Process: *b = *b - *a (ย้ายค่าเดิมของ a ไป b)" style="shape=rectangle;whiteSpace=wrap;html=1;fillColor=#dae8fc;strokeColor=#6c8ebf;" vertex="1" parent="1">
      <mxGeometry x="340" y="240" width="180" height="40" as="geometry" />
    </mxCell>
    <mxCell id="31" value="สิ้นสุด (Stop Function)" style="ellipse;whiteSpace=wrap;html=1;fillColor=#6a329f;fontColor=#ffffff;strokeColor=#371960;" vertex="1" parent="1">
      <mxGeometry x="370" y="310" width="120" height="40" as="geometry" />
    </mxCell>

    <!-- swapNumbers Connectors -->
    <mxCell id="32" value="" style="endArrow=classic;html=1;exitX=0.5;exitY=1;entryX=0.5;entryY=0;" edge="1" parent="1" source="27" target="28">
      <mxGeometry width="50" height="50" relative="1" as="geometry" />
    </mxCell>
    <mxCell id="33" value="" style="endArrow=classic;html=1;exitX=0.5;exitY=1;entryX=0.5;entryY=0;" edge="1" parent="1" source="28" target="29">
      <mxGeometry width="50" height="50" relative="1" as="geometry" />
    </mxCell>
    <mxCell id="34" value="" style="endArrow=classic;html=1;exitX=0.5;exitY=1;entryX=0.5;entryY=0;" edge="1" parent="1" source="29" target="30">
      <mxGeometry width="50" height="50" relative="1" as="geometry" />
    </mxCell>
    <mxCell id="35" value="" style="endArrow=classic;html=1;exitX=0.5;exitY=1;entryX=0.5;entryY=0;" edge="1" parent="1" source="30" target="31">
      <mxGeometry width="50" height="50" relative="1" as="geometry" />
    </mxCell>
  </root>
</mxGraphModel>
